<svg xmlns="http://www.w3.org/2000/svg" width="32" height="32" viewBox="0 0 32 32"><defs><style>.a{fill:#fff;}</style></defs><path class="a" d="M13.343,44.15l6.8,3.864-6.8,3.864ZM32,35.429V60.571A3.429,3.429,0,0,1,28.571,64H3.429A3.429,3.429,0,0,1,0,60.571V35.429A3.429,3.429,0,0,1,3.429,32H28.571A3.429,3.429,0,0,1,32,35.429ZM29,48.021a34.322,34.322,0,0,0-.543-6.3,3.26,3.26,0,0,0-2.3-2.314c-2.021-.55-10.157-.55-10.157-.55s-8.136,0-10.157.55a3.26,3.26,0,0,0-2.3,2.314,36.828,36.828,0,0,0,0,12.6,3.213,3.213,0,0,0,2.3,2.279c2.021.543,10.157.543,10.157.543s8.136,0,10.157-.55a3.213,3.213,0,0,0,2.3-2.279A34.217,34.217,0,0,0,29,48.021Z" transform="translate(0 -32)"/></svg>