<svg xmlns="http://www.w3.org/2000/svg" xmlns:xlink="http://www.w3.org/1999/xlink" width="321" height="94.333" viewBox="0 0 321 94.333"><defs><style>.a,.c{fill:#0477bf;font-family:Josefin Sans;}.a{font-size:20px;}.b{fill:url(#a);}.c{font-size:16px;}.d{fill:none;stroke:#0477bf;}</style><linearGradient id="a" x1="0.5" x2="0.5" y2="1" gradientUnits="objectBoundingBox"><stop offset="0" stop-color="#e77a73"/><stop offset="1" stop-color="#fcad8e"/></linearGradient></defs><g transform="translate(-518.5 -3979.667)"><text class="a" transform="translate(569.5 3995.667)"><tspan x="0" y="0">yuvaan GUARANTEE</tspan></text><path class="b" d="M33.961,0H27.25a2.5,2.5,0,0,0-1.688.656l-7.68,7.031c-.008.008-.016.023-.023.031a3.108,3.108,0,0,0-.164,4.375,3.258,3.258,0,0,0,4.383.211c.008-.008.023-.008.031-.016L28.352,6.57a1.25,1.25,0,0,1,1.687,1.844L28,10.281l11.375,9.234a5.629,5.629,0,0,1,.617.6V5L35.727.734A2.482,2.482,0,0,0,33.961,0ZM42.5,5.016V22.508a2.5,2.5,0,0,0,2.5,2.5h5V5.016Zm3.75,17.492a1.25,1.25,0,1,1,1.25-1.25A1.254,1.254,0,0,1,46.25,22.508ZM0,25H5a2.5,2.5,0,0,0,2.5-2.5V5.016H0Zm3.75-4.992a1.25,1.25,0,1,1-1.25,1.25A1.254,1.254,0,0,1,3.75,20.008ZM37.8,21.461,26.141,11.992,23.8,14.141a5.623,5.623,0,1,1-7.6-8.289L22.586,0H16.039a2.5,2.5,0,0,0-1.766.734L10,5V22.492h1.43l7.07,6.4a5,5,0,0,0,7.031-.727l.016-.016,1.4,1.211a2.9,2.9,0,0,0,4.086-.422l2.453-3.016.422.344a2.5,2.5,0,0,0,3.516-.367l.742-.914A2.5,2.5,0,0,0,37.8,21.461Z" transform="translate(518.5 4034.667) rotate(-90)"/><text class="c" transform="translate(569.5 4017)"><tspan x="0" y="12">More people start fundraisers on </tspan><tspan x="0" y="31">yuvaan than on any other platform. </tspan><tspan x="0" y="50">Learn more</tspan></text><line class="d" x2="80" transform="translate(569.5 4073.5)"/></g></svg>