<svg xmlns="http://www.w3.org/2000/svg" width="108" height="27" viewBox="0 0 108 27"><defs><style>.a{fill:#e77a73;}.b{fill:#a13265;}</style></defs><g transform="translate(-1245 -4672)"><g transform="translate(-71.5 -4.187)"><ellipse class="a" cx="14.5" cy="13.5" rx="14.5" ry="13.5" transform="translate(1381.5 4676.187)"/><path class="b" d="M22.731,150.97H.869a.869.869,0,0,0-.869.869v4.055a.869.869,0,0,0,.869.869H22.731V160.1a1.738,1.738,0,0,0,2.967,1.229l6.231-6.231a1.738,1.738,0,0,0,0-2.458L25.7,146.406a1.738,1.738,0,0,0-2.967,1.229Z" transform="translate(1392.062 4535.821)"/></g><g transform="translate(1245 4672)"><ellipse class="a" cx="14.5" cy="13.5" rx="14.5" ry="13.5" transform="translate(14 0)"/><path class="b" d="M9.707,150.97H31.569a.869.869,0,0,1,.869.869v4.055a.869.869,0,0,1-.869.869H9.707V160.1a1.738,1.738,0,0,1-2.967,1.229L.509,155.095a1.738,1.738,0,0,1,0-2.458l6.231-6.231a1.738,1.738,0,0,1,2.967,1.229Z" transform="translate(0 -140.366)"/></g></g></svg>