<svg xmlns="http://www.w3.org/2000/svg" xmlns:xlink="http://www.w3.org/1999/xlink" width="656" height="473.388" viewBox="0 0 656 473.388"><defs><style>.a,.b{fill:#0477bf;}.a{font-size:55px;}.a,.b,.e,.g{font-family:Josefin Sans;}.a,.e,.g{font-weight:700;}.b,.e,.g{font-size:20px;}.c{fill:url(#a);}.d,.i{fill:none;}.d{stroke:#e77a73;}.e{fill:#e77a73;}.f{fill:url(#h);}.g{fill:#fbf7f5;}.h{stroke:none;}.j{filter:url(#i);}.k{filter:url(#f);}</style><linearGradient id="a" x1="0.5" x2="0.5" y2="1" gradientUnits="objectBoundingBox"><stop offset="0" stop-color="#e77a73"/><stop offset="1" stop-color="#fcad8e"/></linearGradient><filter id="f" x="252" y="388.388" width="252" height="85" filterUnits="userSpaceOnUse"><feOffset dy="3" input="SourceAlpha"/><feGaussianBlur stdDeviation="5" result="g"/><feFlood flood-color="#a13265" flood-opacity="0.412"/><feComposite operator="in" in2="g"/><feComposite in="SourceGraphic"/></filter><linearGradient id="h" x1="0.964" y1="0.855" x2="-0.167" gradientUnits="objectBoundingBox"><stop offset="0" stop-color="#58558a"/><stop offset="1" stop-color="#a13265"/></linearGradient><filter id="i" x="0" y="388.388" width="252" height="85" filterUnits="userSpaceOnUse"><feOffset dy="3" input="SourceAlpha"/><feGaussianBlur stdDeviation="5" result="j"/><feFlood flood-color="#a13265" flood-opacity="0.412"/><feComposite operator="in" in2="j"/><feComposite in="SourceGraphic"/></filter></defs><g transform="translate(-1109 -1476)"><text class="a" transform="translate(1124 1520)"><tspan x="0" y="0">We are here to help you!</tspan></text><text class="b" transform="translate(1124 1560)"><tspan x="0" y="15">Lorem Ipsum is simply dummy text of the printing and </tspan><tspan x="0" y="45">typesetting industry. Lorem Ipsum has been the industry&apos;s </tspan><tspan x="0" y="75">standard dummy text ever since the 1500s, when an unknown </tspan><tspan x="0" y="105">printer took a galley of type and scrambled it to make a type</tspan></text><text class="b" transform="translate(1163 1696)"><tspan x="0" y="15">Lorem Ipsum is simply dummy text of the printing.</tspan><tspan x="0" y="45">Lorem Ipsum is simply dummy text of the printing.</tspan><tspan x="0" y="75">Lorem Ipsum is simply dummy text of the printing.</tspan><tspan x="0" y="105">Lorem Ipsum is simply dummy text of the printing.</tspan><tspan x="0" y="135">Lorem Ipsum is simply dummy text of the printing.</tspan></text><path class="c" d="M15.749,8A7.749,7.749,0,1,1,8,15.749,7.748,7.748,0,0,1,15.749,8Zm3.559,7.218-4.234-4.234a.747.747,0,0,0-1.059,0l-.531.531a.747.747,0,0,0,0,1.059l3.175,3.175-3.175,3.175a.747.747,0,0,0,0,1.059l.531.531a.747.747,0,0,0,1.059,0l4.234-4.234A.751.751,0,0,0,19.308,15.218Z" transform="translate(1116 1690)"/><path class="c" d="M15.749,8A7.749,7.749,0,1,1,8,15.749,7.748,7.748,0,0,1,15.749,8Zm3.559,7.218-4.234-4.234a.747.747,0,0,0-1.059,0l-.531.531a.747.747,0,0,0,0,1.059l3.175,3.175-3.175,3.175a.747.747,0,0,0,0,1.059l.531.531a.747.747,0,0,0,1.059,0l4.234-4.234A.751.751,0,0,0,19.308,15.218Z" transform="translate(1116 1719)"/><path class="c" d="M15.749,8A7.749,7.749,0,1,1,8,15.749,7.748,7.748,0,0,1,15.749,8Zm3.559,7.218-4.234-4.234a.747.747,0,0,0-1.059,0l-.531.531a.747.747,0,0,0,0,1.059l3.175,3.175-3.175,3.175a.747.747,0,0,0,0,1.059l.531.531a.747.747,0,0,0,1.059,0l4.234-4.234A.751.751,0,0,0,19.308,15.218Z" transform="translate(1116 1747)"/><path class="c" d="M15.749,8A7.749,7.749,0,1,1,8,15.749,7.748,7.748,0,0,1,15.749,8Zm3.559,7.218-4.234-4.234a.747.747,0,0,0-1.059,0l-.531.531a.747.747,0,0,0,0,1.059l3.175,3.175-3.175,3.175a.747.747,0,0,0,0,1.059l.531.531a.747.747,0,0,0,1.059,0l4.234-4.234A.751.751,0,0,0,19.308,15.218Z" transform="translate(1116 1777)"/><path class="c" d="M15.749,8A7.749,7.749,0,1,1,8,15.749,7.748,7.748,0,0,1,15.749,8Zm3.559,7.218-4.234-4.234a.747.747,0,0,0-1.059,0l-.531.531a.747.747,0,0,0,0,1.059l3.175,3.175-3.175,3.175a.747.747,0,0,0,0,1.059l.531.531a.747.747,0,0,0,1.059,0l4.234-4.234A.751.751,0,0,0,19.308,15.218Z" transform="translate(1116 1810)"/><g transform="translate(1376 1876.388)"><g class="k" transform="matrix(1, 0, 0, 1, -267, -400.39)"><g class="d" transform="translate(267 400.39)"><rect class="h" width="222" height="55" rx="7"/><rect class="i" x="0.5" y="0.5" width="221" height="54" rx="6.5"/></g></g><text class="e" transform="translate(55 33)"><tspan x="0" y="0">Learn More</tspan></text></g><g transform="translate(1124 1876.388)"><g class="j" transform="matrix(1, 0, 0, 1, -15, -400.39)"><rect class="f" width="222" height="55" rx="7" transform="translate(15 400.39)"/></g><text class="g" transform="translate(51 33)"><tspan x="0" y="0">Let&apos;s yuvaan</tspan></text></g></g></svg>