<svg xmlns="http://www.w3.org/2000/svg" xmlns:xlink="http://www.w3.org/1999/xlink" width="23.625" height="24" viewBox="0 0 23.625 24"><defs><style>.a{fill:url(#a);}</style><linearGradient id="a" x1="0.5" x2="0.5" y2="1" gradientUnits="objectBoundingBox"><stop offset="0" stop-color="#e77a73"/><stop offset="1" stop-color="#fcad8e"/></linearGradient></defs><path class="a" d="M24.011,4.631C21.5,4.631,19.424,3,16.266,3a9.111,9.111,0,0,0-3.19.563A2.625,2.625,0,1,0,9.125,4.779v18.1A1.125,1.125,0,0,0,10.25,24H11a1.125,1.125,0,0,0,1.125-1.125V18.45a13.1,13.1,0,0,1,5.364-1.037c2.512,0,4.586,1.63,7.745,1.63a9.813,9.813,0,0,0,5.742-1.915,1.5,1.5,0,0,0,.649-1.236V4.5a1.5,1.5,0,0,0-2.132-1.36,13.647,13.647,0,0,1-5.482,1.493Z" transform="translate(-8 0)"/></svg>