<svg xmlns="http://www.w3.org/2000/svg" width="221.805" height="71.605" viewBox="0 0 221.805 71.605"><defs><style>.a{fill:#fbf7f5;}</style></defs><g transform="translate(0 0)"><path class="a" d="M535.772,371.824l-8.463-18.812h-8.457l13.167,27.23-6.59,14.786h7.316l18.323-42.016h-6.913Z" transform="translate(-518.852 -353.012)"/><path class="a" d="M648.852,369.229l-7.8-16.217h-8.927l16.31,30.411h.336l15.571-30.411h-8.457Z" transform="translate(-555.068 -353.012)"/><path class="a" d="M711.38,353.059l-.539,5.107a13.625,13.625,0,0,0-3.748-3.544,11.945,11.945,0,0,0-6.578-1.61,13.926,13.926,0,0,0-7.08,1.88,14.113,14.113,0,0,0-5.235,5.336,18.628,18.628,0,0,0-.1,16.51,12.272,12.272,0,0,0,5.135,5,15.665,15.665,0,0,0,7.282,1.678,12.165,12.165,0,0,0,4.4-.737,14.127,14.127,0,0,0,3.357-1.812,13.662,13.662,0,0,0,2.215-1.981l.3-.358v4.9h7.584l-.007-30.364Zm-.6,18.142a8.839,8.839,0,0,1-1.678,3.254,7.263,7.263,0,0,1-2.82,2.082,9.434,9.434,0,0,1-3.691.7,8.274,8.274,0,0,1-4.4-1.207,9.174,9.174,0,0,1-3.188-3.289,9.052,9.052,0,0,1-1.209-4.631,9.227,9.227,0,0,1,1.141-4.632,8.358,8.358,0,0,1,7.382-4.3,9.328,9.328,0,0,1,3.726.738A8.882,8.882,0,0,1,709,361.973a7.655,7.655,0,0,1,1.779,3.054Z" transform="translate(-572.364 -353.012)"/><path class="a" d="M711.38,353.059l-.539,5.107a13.625,13.625,0,0,0-3.748-3.544,11.945,11.945,0,0,0-6.578-1.61,13.926,13.926,0,0,0-7.08,1.88,14.113,14.113,0,0,0-5.235,5.336,18.628,18.628,0,0,0-.1,16.51,12.272,12.272,0,0,0,5.135,5,15.665,15.665,0,0,0,7.282,1.678,12.165,12.165,0,0,0,4.4-.737,14.127,14.127,0,0,0,3.357-1.812,13.662,13.662,0,0,0,2.215-1.981l.3-.358v4.9h7.584l-.007-30.364Zm-.6,18.142a8.839,8.839,0,0,1-1.678,3.254,7.263,7.263,0,0,1-2.82,2.082,9.434,9.434,0,0,1-3.691.7,8.274,8.274,0,0,1-4.4-1.207,9.174,9.174,0,0,1-3.188-3.289,9.052,9.052,0,0,1-1.209-4.631,9.227,9.227,0,0,1,1.141-4.632,8.358,8.358,0,0,1,7.382-4.3,9.328,9.328,0,0,1,3.726.738A8.882,8.882,0,0,1,709,361.973a7.655,7.655,0,0,1,1.779,3.054Z" transform="translate(-535.631 -353.012)"/><path class="a" d="M771.01,355.808a11.034,11.034,0,0,0-7.658-2.761,15.177,15.177,0,0,0-8.047,2.06,12.778,12.778,0,0,0-4.907,5.275l-.661-7.281h-7.775l.009,30.357h8.708V371.583a16.862,16.862,0,0,1,1.127-6.414,9.992,9.992,0,0,1,3.265-4.354,7.807,7.807,0,0,1,4.782-1.593,5.5,5.5,0,0,1,4.2,1.593,6.192,6.192,0,0,1,1.4,4v18.638h8.708V362.844A9.286,9.286,0,0,0,771.01,355.808Z" transform="translate(-552.354 -353.023)"/><path class="a" d="M598.174,353.047v11.874a16.874,16.874,0,0,1-1.126,6.414,9.994,9.994,0,0,1-3.265,4.354A7.811,7.811,0,0,1,589,377.283a5.5,5.5,0,0,1-4.2-1.593,6.188,6.188,0,0,1-1.4-4V353.047h-8.708v20.614a9.286,9.286,0,0,0,3.149,7.035,11.035,11.035,0,0,0,7.659,2.761,15.18,15.18,0,0,0,8.047-2.061,12.784,12.784,0,0,0,4.907-5.274l.661,7.28h7.774l-.009-30.356Z" transform="translate(-536.706 -353.023)"/></g><g transform="translate(0 56.439)"><path class="a" d="M518.852,435.977h1.712V447.9h-1.712Z" transform="translate(-518.852 -435.977)"/><path class="a" d="M527.628,450.5a3.993,3.993,0,0,1-1.933-.444,3.025,3.025,0,0,1-1.246-1.223,3.648,3.648,0,0,1-.428-1.788,3.236,3.236,0,0,1,.489-1.758,3.605,3.605,0,0,1,1.322-1.246,3.706,3.706,0,0,1,1.842-.467,3.169,3.169,0,0,1,2.193.772,3.87,3.87,0,0,1,1.155,2.179l-5.213,1.758-.382-.963,4.052-1.452-.337.214a1.978,1.978,0,0,0-.55-.817,1.521,1.521,0,0,0-1.055-.344,1.739,1.739,0,0,0-.948.26,1.818,1.818,0,0,0-.65.711,2.213,2.213,0,0,0-.237,1.047,2.268,2.268,0,0,0,.26,1.123,1.826,1.826,0,0,0,.7.719,2.006,2.006,0,0,0,1.01.252,2.169,2.169,0,0,0,.764-.137,2.954,2.954,0,0,0,.688-.367l.78,1.269a4.693,4.693,0,0,1-1.108.513A3.873,3.873,0,0,1,527.628,450.5Z" transform="translate(-520.505 -438.406)"/><path class="a" d="M537.182,439.821h1.712v2.843h1.682v1.33h-1.682v5.137h-1.712v-5.137h-1.116v-1.33h1.116Z" transform="translate(-524.356 -437.206)"/><path class="a" d="M544.088,439.329a2.227,2.227,0,0,0,.612-1.941l1.345-.107a1.887,1.887,0,0,1-.046.917,3.04,3.04,0,0,1-.413.895,2.254,2.254,0,0,1-.626.635Z" transform="translate(-526.921 -436.394)"/><path class="a" d="M551.112,450.482a3.8,3.8,0,0,1-1.4-.26,2.886,2.886,0,0,1-1.108-.749l.718-.979a3.38,3.38,0,0,0,.848.6,1.876,1.876,0,0,0,.8.2,1.9,1.9,0,0,0,.527-.069.784.784,0,0,0,.375-.222.57.57,0,0,0,.137-.4.593.593,0,0,0-.207-.489,1.747,1.747,0,0,0-.542-.283l-.7-.237a2.537,2.537,0,0,1-1.254-.765,1.8,1.8,0,0,1-.412-1.177,2,2,0,0,1,1.047-1.735,2.729,2.729,0,0,1,1.353-.3,4.341,4.341,0,0,1,1.269.169,3.186,3.186,0,0,1,1.025.535l-.658,1.039a2.072,2.072,0,0,0-.65-.413,2.116,2.116,0,0,0-.68-.168,1.067,1.067,0,0,0-.489.077,1.032,1.032,0,0,0-.352.236.485.485,0,0,0-.137.344.558.558,0,0,0,.214.49,1.72,1.72,0,0,0,.589.29q.359.108.7.229a3.641,3.641,0,0,1,.833.382,1.785,1.785,0,0,1,.574.581,1.623,1.623,0,0,1,.214.856,2.136,2.136,0,0,1-.291,1.086,2.159,2.159,0,0,1-.863.818A3.069,3.069,0,0,1,551.112,450.482Z" transform="translate(-528.365 -438.42)"/><path class="a" d="M568.526,448.07a3.151,3.151,0,0,1-1.629-.428,2.975,2.975,0,0,1-1.139-1.223,3.953,3.953,0,0,1-.413-1.85,3.667,3.667,0,0,1,.444-1.857,2.918,2.918,0,0,1,1.216-1.17,3.735,3.735,0,0,1,1.735-.4,3.456,3.456,0,0,1,1.346.268,2.416,2.416,0,0,1,1.024.772l-.031.58v-6.788h1.7V447.9h-1.712v-1.452l.168.413a4.2,4.2,0,0,1-1.162.864A3.342,3.342,0,0,1,568.526,448.07Zm.55-1.467a2.337,2.337,0,0,0,.895-.161,1.84,1.84,0,0,0,.673-.473,2.018,2.018,0,0,0,.42-.742v-1.36a1.789,1.789,0,0,0-.405-.719,2,2,0,0,0-.7-.482,2.242,2.242,0,0,0-.887-.176,1.922,1.922,0,0,0-1,.267,2.059,2.059,0,0,0-.727.726,2.005,2.005,0,0,0-.275,1.054,2.055,2.055,0,0,0,.275,1.054,2.018,2.018,0,0,0,.727.742A1.922,1.922,0,0,0,569.076,446.6Z" transform="translate(-533.717 -435.977)"/><path class="a" d="M578.941,447.028a3.361,3.361,0,0,1,.466-1.758,3.4,3.4,0,0,1,1.292-1.238,3.841,3.841,0,0,1,1.9-.458,3.711,3.711,0,0,1,1.873.458,3.276,3.276,0,0,1,1.246,1.238,3.47,3.47,0,0,1,.444,1.743,3.567,3.567,0,0,1-.444,1.78,3.249,3.249,0,0,1-1.246,1.246,3.8,3.8,0,0,1-1.918.459,4.01,4.01,0,0,1-1.857-.42,3.142,3.142,0,0,1-1.284-1.2A3.535,3.535,0,0,1,578.941,447.028Zm1.728.015a2.174,2.174,0,0,0,.245,1.04,1.972,1.972,0,0,0,.665.734,1.708,1.708,0,0,0,.955.274,1.764,1.764,0,0,0,.986-.274,1.979,1.979,0,0,0,.665-.734,2.337,2.337,0,0,0,0-2.08,1.978,1.978,0,0,0-.665-.734,1.838,1.838,0,0,0-1.934,0,1.935,1.935,0,0,0-.672.741A2.188,2.188,0,0,0,580.669,447.043Z" transform="translate(-538.064 -438.406)"/><path class="a" d="M599.788,439.821H601.5v2.843h1.682v1.33H601.5v5.137h-1.712v-5.137h-1.116v-1.33h1.116Z" transform="translate(-544.372 -437.206)"/><path class="a" d="M607.8,447.9V435.977h1.666v6.88l-.03-.276A2.859,2.859,0,0,1,612,441.159a2.172,2.172,0,0,1,1.506.543,1.826,1.826,0,0,1,.619,1.384V447.9h-1.712v-4.189a1.217,1.217,0,0,0-.276-.788,1.084,1.084,0,0,0-.825-.314,1.538,1.538,0,0,0-.94.314,1.96,1.96,0,0,0-.642.857,3.307,3.307,0,0,0-.222,1.261V447.9Z" transform="translate(-547.29 -435.977)"/><path class="a" d="M620.47,440.137a.809.809,0,0,1,.306-.641,1.013,1.013,0,0,1,.672-.26.986.986,0,0,1,.665.26.835.835,0,0,1,.3.657.819.819,0,0,1-.3.642.987.987,0,0,1-.665.26,1.014,1.014,0,0,1-.672-.26A.824.824,0,0,1,620.47,440.137Zm.077,2.339h1.712v6.467h-1.712Z" transform="translate(-551.342 -437.019)"/><path class="a" d="M628.213,450.482a3.8,3.8,0,0,1-1.4-.26,2.885,2.885,0,0,1-1.108-.749l.719-.979a3.379,3.379,0,0,0,.848.6,1.876,1.876,0,0,0,.8.2,1.9,1.9,0,0,0,.527-.069.783.783,0,0,0,.375-.222.573.573,0,0,0,.137-.4.592.592,0,0,0-.207-.489,1.752,1.752,0,0,0-.542-.283l-.7-.237a2.536,2.536,0,0,1-1.254-.765,1.8,1.8,0,0,1-.412-1.177,2,2,0,0,1,1.047-1.735,2.73,2.73,0,0,1,1.353-.3,4.341,4.341,0,0,1,1.269.169,3.177,3.177,0,0,1,1.024.535l-.657,1.039a2.072,2.072,0,0,0-.65-.413,2.116,2.116,0,0,0-.68-.168,1.066,1.066,0,0,0-.489.077,1.033,1.033,0,0,0-.352.236.485.485,0,0,0-.138.344.558.558,0,0,0,.214.49,1.716,1.716,0,0,0,.589.29q.359.108.7.229a3.64,3.64,0,0,1,.833.382,1.786,1.786,0,0,1,.573.581,1.621,1.621,0,0,1,.214.856,2.136,2.136,0,0,1-.29,1.086,2.161,2.161,0,0,1-.863.818A3.069,3.069,0,0,1,628.213,450.482Z" transform="translate(-553.016 -438.42)"/><path class="a" d="M643.631,439.821h1.712v2.843h1.682v1.33h-1.682v5.137h-1.712v-5.137h-1.116v-1.33h1.116Z" transform="translate(-558.39 -437.206)"/><path class="a" d="M650.829,447.028a3.354,3.354,0,0,1,.467-1.758,3.4,3.4,0,0,1,1.291-1.238,3.845,3.845,0,0,1,1.9-.458,3.714,3.714,0,0,1,1.873.458,3.274,3.274,0,0,1,1.245,1.238,3.464,3.464,0,0,1,.443,1.743,3.56,3.56,0,0,1-.443,1.78,3.247,3.247,0,0,1-1.245,1.246,3.8,3.8,0,0,1-1.919.459,4.013,4.013,0,0,1-1.858-.42,3.139,3.139,0,0,1-1.284-1.2A3.529,3.529,0,0,1,650.829,447.028Zm1.728.015a2.175,2.175,0,0,0,.244,1.04,1.976,1.976,0,0,0,.665.734,1.709,1.709,0,0,0,.955.274,1.766,1.766,0,0,0,.987-.274,1.981,1.981,0,0,0,.665-.734,2.331,2.331,0,0,0,0-2.08,1.979,1.979,0,0,0-.665-.734,1.838,1.838,0,0,0-1.934,0,1.939,1.939,0,0,0-.673.741A2.189,2.189,0,0,0,652.557,447.043Z" transform="translate(-561.048 -438.406)"/><path class="a" d="M667.046,453.571a4.035,4.035,0,0,1-2.346-.673,6.7,6.7,0,0,1-.8-.627l.994-1.177a5.032,5.032,0,0,0,.94.7,2.39,2.39,0,0,0,1.2.282,2.6,2.6,0,0,0,1.093-.214,1.784,1.784,0,0,0,.734-.6,1.515,1.515,0,0,0,.252-.933l.016-1.62.107.337a2.437,2.437,0,0,1-.955,1.024,3.149,3.149,0,0,1-1.7.428,3.109,3.109,0,0,1-1.635-.451,3.338,3.338,0,0,1-1.192-1.223,3.474,3.474,0,0,1-.444-1.765,3.41,3.41,0,0,1,.474-1.8,3.515,3.515,0,0,1,1.238-1.239,3.172,3.172,0,0,1,1.635-.451,3.606,3.606,0,0,1,1.522.306,2.5,2.5,0,0,1,1,.764l-.092.244.2-1.024h1.559v6.482a2.87,2.87,0,0,1-.482,1.635,3.479,3.479,0,0,1-1.33,1.154A4.281,4.281,0,0,1,667.046,453.571Zm-2.018-6.558a2.1,2.1,0,0,0,.268,1.054,2,2,0,0,0,.733.75,2.026,2.026,0,0,0,1.048.274,2.351,2.351,0,0,0,.91-.167,2.092,2.092,0,0,0,.7-.474,1.852,1.852,0,0,0,.436-.718V446.31a1.934,1.934,0,0,0-.428-.7,1.894,1.894,0,0,0-.711-.466,2.537,2.537,0,0,0-.91-.161,2.119,2.119,0,0,0-1.048.259,1.918,1.918,0,0,0-.733.718A2.053,2.053,0,0,0,665.028,447.013Z" transform="translate(-565.036 -438.406)"/><path class="a" d="M680.662,450.5a3.994,3.994,0,0,1-1.934-.444,3.024,3.024,0,0,1-1.245-1.223,3.649,3.649,0,0,1-.429-1.788,3.235,3.235,0,0,1,.49-1.758,3.609,3.609,0,0,1,1.322-1.246,3.708,3.708,0,0,1,1.842-.467,3.17,3.17,0,0,1,2.194.772,3.876,3.876,0,0,1,1.154,2.179l-5.213,1.758-.382-.963,4.051-1.452-.337.214a1.972,1.972,0,0,0-.55-.817,1.519,1.519,0,0,0-1.054-.344,1.736,1.736,0,0,0-.948.26,1.818,1.818,0,0,0-.65.711,2.213,2.213,0,0,0-.237,1.047,2.267,2.267,0,0,0,.26,1.123,1.832,1.832,0,0,0,.7.719,2.005,2.005,0,0,0,1.009.252,2.176,2.176,0,0,0,.765-.137,2.976,2.976,0,0,0,.688-.367l.78,1.269a4.7,4.7,0,0,1-1.108.513A3.876,3.876,0,0,1,680.662,450.5Z" transform="translate(-569.433 -438.406)"/><path class="a" d="M690.215,439.821h1.712v2.843h1.682v1.33h-1.682v5.137h-1.712v-5.137H689.1v-1.33h1.116Z" transform="translate(-573.284 -437.206)"/><path class="a" d="M698.223,447.9V435.977h1.666v6.88l-.031-.276a2.857,2.857,0,0,1,2.569-1.422,2.173,2.173,0,0,1,1.506.543,1.827,1.827,0,0,1,.619,1.384V447.9h-1.712v-4.189a1.216,1.216,0,0,0-.275-.788,1.085,1.085,0,0,0-.825-.314,1.542,1.542,0,0,0-.941.314,1.971,1.971,0,0,0-.642.857,3.324,3.324,0,0,0-.221,1.261V447.9Z" transform="translate(-576.201 -435.977)"/><path class="a" d="M713.808,450.5a3.994,3.994,0,0,1-1.934-.444,3.031,3.031,0,0,1-1.246-1.223,3.656,3.656,0,0,1-.428-1.788,3.24,3.24,0,0,1,.489-1.758,3.615,3.615,0,0,1,1.322-1.246,3.708,3.708,0,0,1,1.842-.467,3.17,3.17,0,0,1,2.194.772,3.875,3.875,0,0,1,1.154,2.179l-5.213,1.758-.382-.963,4.051-1.452-.337.214a1.971,1.971,0,0,0-.55-.817,1.519,1.519,0,0,0-1.054-.344,1.736,1.736,0,0,0-.948.26,1.817,1.817,0,0,0-.65.711,2.213,2.213,0,0,0-.237,1.047,2.269,2.269,0,0,0,.26,1.123,1.828,1.828,0,0,0,.7.719,2,2,0,0,0,1.009.252,2.176,2.176,0,0,0,.765-.137,2.977,2.977,0,0,0,.688-.367l.78,1.269a4.7,4.7,0,0,1-1.108.513A3.875,3.875,0,0,1,713.808,450.5Z" transform="translate(-580.031 -438.406)"/><path class="a" d="M724.5,443.863l.169,1.835-.046-.26a2.611,2.611,0,0,1,.734-.994,4.309,4.309,0,0,1,.994-.642,2.14,2.14,0,0,1,.841-.229l-.107,1.712a2.074,2.074,0,0,0-1.261.26,2.248,2.248,0,0,0-.841.864,2.333,2.333,0,0,0-.3,1.139v2.782h-1.7v-6.467Z" transform="translate(-584.119 -438.406)"/></g></svg>